<?xml version="1.0" encoding="iso-8859-1"?>
<!-- Generator: Adobe Illustrator 16.0.0, SVG Export Plug-In . SVG Version: 6.00 Build 0)  -->
<!DOCTYPE svg PUBLIC "-//W3C//DTD SVG 1.1//EN" "http://www.w3.org/Graphics/SVG/1.1/DTD/svg11.dtd">
<svg xmlns="http://www.w3.org/2000/svg" xmlns:xlink="http://www.w3.org/1999/xlink" version="1.1" id="Capa_1" x="0px" y="0px" width="512px" height="512px" viewBox="0 0 612 612" style="enable-background:new 0 0 612 612;" xml:space="preserve">
<g>
	<g>
		<g id="Marshmellow_Cloud">
			<g>
				<path d="M382.5,76.5c-100.139,0-185.054,64.241-216.399,153.669c-4.323-0.382-8.683-0.669-13.101-0.669      c-84.494,0-153,68.506-153,153s68.506,153,153,153h229.5C509.241,535.5,612,432.741,612,306S509.241,76.5,382.5,76.5z       M535.156,316.48C529.705,397.704,458.503,459,377.106,459H156.404c-39.933,0-75.659-29.108-79.541-68.85      C72.426,344.537,108.305,306,153,306c2.238,0,4.437,0.191,6.617,0.382l29.529,2.505c17.384,1.474,33.564-8.989,39.34-25.455      l9.811-27.961C259.775,194.176,317.724,153,382.5,153C470.322,153,541.123,227.396,535.156,316.48z" fill="#FFFFFF"/>
			</g>
		</g>
	</g>
</g>
<g>
</g>
<g>
</g>
<g>
</g>
<g>
</g>
<g>
</g>
<g>
</g>
<g>
</g>
<g>
</g>
<g>
</g>
<g>
</g>
<g>
</g>
<g>
</g>
<g>
</g>
<g>
</g>
<g>
</g>
</svg>
